<svg preserveAspectRatio="none" width="100%" height="100%" overflow="visible" style="display: block;" viewBox="0 0 36.8123 40.1166" fill="none" xmlns="http://www.w3.org/2000/svg">
<path id="Union" d="M11.2361 5.16869L16.7899 0.509675C17.7602 -0.169896 19.052 -0.169887 20.0223 0.509675L25.5765 5.16869H30.0708C32.2488 5.16869 34.0145 6.93435 34.0145 9.1124V12.2467L36.5103 14.3402C36.7017 14.5007 36.8123 14.7378 36.8123 14.9876V37.2997C36.8123 38.8554 35.5512 40.1166 33.9954 40.1166H2.81694C1.26129 40.1166 0 38.8554 0 37.2997L0.00137546 14.9876C0.00137546 14.7377 0.111962 14.5007 0.303151 14.3402L2.79768 12.2476V9.1124C2.79768 6.93435 4.56322 5.16869 6.74139 5.16869H11.2361Z" fill="var(--fill-0, #EBE9FF)"/>
</svg>
